<svg xmlns="http://www.w3.org/2000/svg" viewBox="0 0 774 511" role="img" aria-labelledby="title desc"><title id="title">WarmRugs</title><desc id="desc">WarmRugs logo</desc><g transform="translate(130 0)"><g transform="translate(210 18)"><rect x="0" y="0" width="170" height="170" rx="48" fill="#dbb292"/><path d="M0 94h170v76H0z" fill="#e7c4a1"/><path d="M0 94h94v76H0z" fill="#d9b58e"/><path d="M94 94h76v76H94z" fill="#fff3e5"/><path d="M128 96h42v74h-42z" fill="#dbb292"/><path d="M50 46 83 79 50 112 17 79z" fill="#fff3e5"/><path d="M115 42h42M115 54h42M115 66h42M115 78h42" stroke="#fff3e5" stroke-width="6"/><path d="M106 94v76M117 94v76M128 94v76M139 94v76" stroke="#fff3e5" stroke-width="5"/><path d="M88 137v33M98 137v33M108 137v33" stroke="#dbb292" stroke-width="5"/></g><text x="0" y="330" font-family="Arial, Helvetica, sans-serif" font-size="112" font-weight="400" letter-spacing="-6" fill="#db8468">Warm</text><text x="340" y="330" font-family="Arial, Helvetica, sans-serif" font-size="112" font-weight="400" letter-spacing="-6" fill="#d9b58e">Rugs</text></g></svg>